<!DOCTYPE svg PUBLIC "-//W3C//DTD SVG 1.1//EN" "http://www.w3.org/Graphics/SVG/1.1/DTD/svg11.dtd">
<!-- Uploaded to: SVG Repo, www.svgrepo.com, Transformed by: SVG Repo Mixer Tools -->
<svg width="217px" height="217px" viewBox="-40 -40 480.00 480.00" fill="none" xmlns="http://www.w3.org/2000/svg" transform="matrix(1, 0, 0, 1, 0, 0)rotate(0)">
<g id="SVGRepo_bgCarrier" stroke-width="0">
<path transform="translate(-40, -40), scale(15)" d="M16,27.616615923387663C18.221201170115815,27.682926424444606,20.14227163582054,30.766404260737662,22.18707489884788,29.896397745712044C24.213944317596866,29.034021579113453,23.789947054175492,25.865735982297306,24.761464583611406,23.888858145056C25.490551233402574,22.405287138120556,26.46065182084609,21.113119718396646,27.22407957066655,19.646924524594947C28.097586803256362,17.96931704114232,29.470124793393577,16.4550027983225,29.61413675152456,14.569096567928673C29.76138982748574,12.640746332267899,29.2223899131312,10.577741884771418,28.033077977176312,9.052699190697503C26.85507911985652,7.542163143196578,24.716967388126694,7.255563325619544,23.104364441909002,6.2216812257181715C21.58203561532605,5.245676234744089,20.52157513042183,3.4217175768505705,18.742740615077686,3.0964199198160944C16.961721076170345,2.7707226848335056,15.346830762669832,4.250554583683858,13.55017838409872,4.474495462979661C11.570720575486073,4.721221834467395,9.260526566714882,3.33049790015554,7.631243470281717,4.481394815670672C6.009521760685711,5.6269505005507146,6.828618764905741,8.423020072359222,5.67385058289935,10.038194854344635C4.358838376851696,11.877503025722207,0.7373428547667039,12.123024593331898,0.5565126255082955,14.376824069668908C0.3732103047369393,16.661434758158812,4.035563646666197,17.48445287342145,4.906307655357427,19.60455914672258C5.689415941389937,21.511288074306115,4.275058985850429,23.877356359412484,5.212435890834161,25.713166352015136C6.1480284642213405,27.54548181242092,7.94918208619435,29.174337539586094,9.975240033942704,29.53183243771057C12.073390656690638,29.90204798063849,13.87038650482198,27.553039629703505,16,27.616615923387663" fill="#b2d910" strokewidth="0"/>
</g>
<g id="SVGRepo_tracerCarrier" stroke-linecap="round" stroke-linejoin="round"/>
<g id="SVGRepo_iconCarrier"> <path d="M140.126 298C126.478 278.853 54.833 167.153 70.1301 153.966C112.157 117.747 160.987 233.547 169 254.261" stroke="#000000" stroke-opacity="0.9" stroke-width="12.8" stroke-linecap="round" stroke-linejoin="round"/> <path d="M231 268.972C243.441 246.461 259.817 226.683 274.612 205.819C278.22 200.734 320.083 138.326 322.768 139.006C343.317 144.18 326.022 199.098 305.37 238.087C284.718 277.076 251.134 295.672 251.805 297.023C255.377 304.223 287.8 289.396 292.786 290.026" stroke="#000000" stroke-opacity="0.9" stroke-width="12.8" stroke-linecap="round" stroke-linejoin="round"/> <path d="M259 298C266.518 299.647 276.168 308.608 279 310" stroke="#000000" stroke-opacity="0.9" stroke-width="12.8" stroke-linecap="round" stroke-linejoin="round"/> <path d="M254 299C255.514 302.597 255.482 306.329 256 310" stroke="#000000" stroke-opacity="0.9" stroke-width="12.8" stroke-linecap="round" stroke-linejoin="round"/> <path d="M151 309C145.734 312.243 119.294 310.792 114 314" stroke="#000000" stroke-opacity="0.9" stroke-width="12.8" stroke-linecap="round" stroke-linejoin="round"/> <path d="M142 314C140.604 316.008 141.333 318.665 141 321" stroke="#000000" stroke-opacity="0.9" stroke-width="12.8" stroke-linecap="round" stroke-linejoin="round"/> <path d="M142 300C144.572 305.007 147.155 307.391 151 310" stroke="#000000" stroke-opacity="0.9" stroke-width="12.8" stroke-linecap="round" stroke-linejoin="round"/> <path d="M118 161.604C168.8 81.3012 290 44.8316 290 181" stroke="#000000" stroke-opacity="0.9" stroke-width="12.8" stroke-linecap="round" stroke-linejoin="round"/> <path d="M186 87.9739C175.016 73.6925 165.556 87.8316 164 101" stroke="#000000" stroke-opacity="0.9" stroke-width="12.8" stroke-linecap="round" stroke-linejoin="round"/> <path d="M256 80.8324C269.395 72.3387 274.059 84.7859 272.804 94" stroke="#000000" stroke-opacity="0.9" stroke-width="12.8" stroke-linecap="round" stroke-linejoin="round"/> <path d="M259 141C238.262 134.454 210.707 135.187 188 138.362" stroke="#000000" stroke-opacity="0.9" stroke-width="12.8" stroke-linecap="round" stroke-linejoin="round"/> </g>
</svg>